<?xml version="1.0" encoding="UTF-8"?>
<svg xmlns="http://www.w3.org/2000/svg" xmlns:xlink="http://www.w3.org/1999/xlink" width="1280" height="720" viewBox="0 0 1280 720">
<defs>
<g>
<g id="glyph-0-0">
<path d="M 2.492188 -3.675781 L 2.492188 -3.585938 L 1.316406 0.0507812 L 0.957031 0.0507812 L 2.054688 -3.265625 L 0.875 -3.265625 C 0.699219 -3.265625 0.570312 -3.238281 0.496094 -3.179688 C 0.417969 -3.121094 0.320312 -3 0.203125 -2.816406 L 0.109375 -2.859375 C 0.226562 -3.148438 0.300781 -3.328125 0.328125 -3.394531 C 0.355469 -3.460938 0.390625 -3.554688 0.4375 -3.675781 Z "/>
</g>
<g id="glyph-0-1">
<path d="M 0.742188 -3.792969 L 0.742188 0 L 0.367188 0 L 0.367188 -3.792969 Z "/>
</g>
<g id="glyph-0-2">
<path d="M 1.386719 -1.554688 C 1.507812 -1.554688 1.636719 -1.589844 1.765625 -1.65625 C 1.898438 -1.726562 1.972656 -1.785156 1.992188 -1.832031 C 2 -1.847656 2.003906 -1.917969 2.011719 -2.03125 C 2.015625 -2.148438 2.019531 -2.246094 2.019531 -2.316406 C 2.019531 -2.691406 1.953125 -3 1.828125 -3.234375 C 1.703125 -3.46875 1.515625 -3.585938 1.273438 -3.585938 C 1.09375 -3.585938 0.953125 -3.503906 0.84375 -3.34375 C 0.734375 -3.183594 0.679688 -2.941406 0.679688 -2.625 C 0.679688 -2.359375 0.730469 -2.113281 0.832031 -1.890625 C 0.933594 -1.667969 1.117188 -1.554688 1.386719 -1.554688 Z M 1.308594 -3.742188 C 1.707031 -3.742188 2.015625 -3.582031 2.234375 -3.265625 C 2.449219 -2.949219 2.558594 -2.59375 2.558594 -2.203125 C 2.558594 -1.929688 2.507812 -1.648438 2.402344 -1.363281 C 2.300781 -1.082031 2.148438 -0.828125 1.953125 -0.605469 C 1.722656 -0.347656 1.433594 -0.15625 1.078125 -0.03125 C 0.882812 0.0390625 0.632812 0.09375 0.332031 0.128906 L 0.304688 0.0234375 C 0.492188 -0.0195312 0.652344 -0.0664062 0.777344 -0.117188 C 1 -0.207031 1.179688 -0.3125 1.316406 -0.441406 C 1.507812 -0.625 1.660156 -0.828125 1.777344 -1.054688 C 1.890625 -1.28125 1.960938 -1.46875 1.992188 -1.621094 L 1.894531 -1.550781 C 1.761719 -1.449219 1.605469 -1.378906 1.425781 -1.339844 C 1.332031 -1.316406 1.246094 -1.308594 1.167969 -1.308594 C 0.859375 -1.308594 0.617188 -1.417969 0.433594 -1.632812 C 0.253906 -1.851562 0.164062 -2.113281 0.164062 -2.414062 C 0.164062 -2.800781 0.273438 -3.117188 0.488281 -3.367188 C 0.703125 -3.617188 0.976562 -3.742188 1.308594 -3.742188 Z "/>
</g>
<g id="glyph-0-3">
<path d="M 1.644531 -3.726562 C 1.652344 -3.71875 1.65625 -3.710938 1.65625 -3.707031 C 1.65625 -3.703125 1.65625 -3.691406 1.65625 -3.675781 L 1.65625 -0.410156 C 1.65625 -0.269531 1.695312 -0.183594 1.769531 -0.144531 C 1.84375 -0.105469 1.980469 -0.0820312 2.183594 -0.0742188 L 2.183594 0 L 0.652344 0 L 0.652344 -0.0820312 C 0.871094 -0.09375 1.015625 -0.121094 1.082031 -0.171875 C 1.148438 -0.21875 1.183594 -0.324219 1.183594 -0.488281 L 1.183594 -3 C 1.183594 -3.085938 1.171875 -3.152344 1.148438 -3.199219 C 1.128906 -3.242188 1.082031 -3.265625 1.007812 -3.265625 C 0.960938 -3.265625 0.902344 -3.253906 0.824219 -3.226562 C 0.75 -3.199219 0.679688 -3.171875 0.617188 -3.144531 L 0.617188 -3.21875 L 1.613281 -3.726562 Z "/>
</g>
<g id="glyph-0-4">
<path d="M 1.328125 -0.101562 C 1.59375 -0.101562 1.777344 -0.246094 1.878906 -0.539062 C 1.976562 -0.828125 2.027344 -1.25 2.027344 -1.800781 C 2.027344 -2.242188 1.996094 -2.589844 1.9375 -2.855469 C 1.824219 -3.34375 1.613281 -3.585938 1.308594 -3.585938 C 1 -3.585938 0.789062 -3.335938 0.675781 -2.832031 C 0.617188 -2.5625 0.585938 -2.210938 0.585938 -1.773438 C 0.585938 -1.363281 0.617188 -1.035156 0.679688 -0.789062 C 0.792969 -0.328125 1.011719 -0.101562 1.328125 -0.101562 Z M 1.320312 -3.734375 C 1.738281 -3.734375 2.058594 -3.515625 2.289062 -3.078125 C 2.472656 -2.726562 2.5625 -2.320312 2.5625 -1.863281 C 2.5625 -1.503906 2.507812 -1.164062 2.394531 -0.847656 C 2.183594 -0.25 1.816406 0.0507812 1.296875 0.0507812 C 0.941406 0.0507812 0.648438 -0.109375 0.417969 -0.433594 C 0.171875 -0.78125 0.0507812 -1.25 0.0507812 -1.84375 C 0.0507812 -2.308594 0.132812 -2.710938 0.296875 -3.046875 C 0.519531 -3.503906 0.859375 -3.734375 1.320312 -3.734375 Z "/>
</g>
</g>
</defs>
<g fill="rgb(100%, 100%, 100%)" fill-opacity="1">
<use xlink:href="#glyph-0-0" x="30" y="24.166992"/>
<use xlink:href="#glyph-0-1" x="33" y="24.166992"/>
<use xlink:href="#glyph-0-2" x="34" y="24.166992"/>
<use xlink:href="#glyph-0-1" x="37" y="24.166992"/>
<use xlink:href="#glyph-0-3" x="38" y="24.166992"/>
<use xlink:href="#glyph-0-4" x="41" y="24.166992"/>
</g>
</svg>
