<?xml version="1.0" encoding="UTF-8"?>
<svg xmlns="http://www.w3.org/2000/svg" xmlns:xlink="http://www.w3.org/1999/xlink" width="1280" height="720" viewBox="0 0 1280 720">
<defs>
<g>
<g id="glyph-0-0">
<path d="M 1.644531 -3.726562 C 1.652344 -3.71875 1.65625 -3.710938 1.65625 -3.707031 C 1.65625 -3.703125 1.65625 -3.691406 1.65625 -3.675781 L 1.65625 -0.410156 C 1.65625 -0.269531 1.695312 -0.183594 1.769531 -0.144531 C 1.84375 -0.105469 1.980469 -0.0820312 2.183594 -0.0742188 L 2.183594 0 L 0.652344 0 L 0.652344 -0.0820312 C 0.871094 -0.09375 1.015625 -0.121094 1.082031 -0.171875 C 1.148438 -0.21875 1.183594 -0.324219 1.183594 -0.488281 L 1.183594 -3 C 1.183594 -3.085938 1.171875 -3.152344 1.148438 -3.199219 C 1.128906 -3.242188 1.082031 -3.265625 1.007812 -3.265625 C 0.960938 -3.265625 0.902344 -3.253906 0.824219 -3.226562 C 0.75 -3.199219 0.679688 -3.171875 0.617188 -3.144531 L 0.617188 -3.21875 L 1.613281 -3.726562 Z "/>
</g>
<g id="glyph-0-1">
<path d="M 2.597656 -1.234375 C 2.597656 -0.902344 2.492188 -0.605469 2.28125 -0.339844 C 2.066406 -0.0742188 1.792969 0.0585938 1.453125 0.0585938 C 1.132812 0.0585938 0.84375 -0.0898438 0.582031 -0.386719 C 0.320312 -0.6875 0.191406 -1.082031 0.191406 -1.578125 C 0.191406 -2.21875 0.441406 -2.765625 0.949219 -3.222656 C 1.402344 -3.605469 1.910156 -3.796875 2.472656 -3.796875 L 2.488281 -3.707031 C 2.261719 -3.667969 2.066406 -3.609375 1.902344 -3.539062 C 1.738281 -3.46875 1.59375 -3.367188 1.464844 -3.238281 C 1.332031 -3.109375 1.207031 -2.941406 1.09375 -2.742188 C 0.976562 -2.542969 0.898438 -2.34375 0.855469 -2.144531 C 0.96875 -2.214844 1.0625 -2.265625 1.144531 -2.296875 C 1.289062 -2.355469 1.433594 -2.382812 1.582031 -2.382812 C 1.871094 -2.382812 2.109375 -2.285156 2.304688 -2.085938 C 2.5 -1.886719 2.597656 -1.601562 2.597656 -1.234375 Z M 2.101562 -1.027344 C 2.101562 -1.265625 2.0625 -1.480469 1.988281 -1.664062 C 1.863281 -1.976562 1.648438 -2.132812 1.34375 -2.132812 C 1.0625 -2.132812 0.875 -2.050781 0.785156 -1.882812 C 0.730469 -1.785156 0.703125 -1.621094 0.703125 -1.394531 C 0.703125 -1.101562 0.765625 -0.8125 0.890625 -0.527344 C 1.015625 -0.246094 1.214844 -0.105469 1.488281 -0.105469 C 1.703125 -0.105469 1.859375 -0.199219 1.957031 -0.382812 C 2.054688 -0.566406 2.101562 -0.78125 2.101562 -1.027344 Z "/>
</g>
<g id="glyph-0-2">
<path d="M 0.742188 -3.792969 L 0.742188 0 L 0.367188 0 L 0.367188 -3.792969 Z "/>
</g>
<g id="glyph-0-3">
<path d="M 1.398438 -0.09375 C 1.605469 -0.09375 1.761719 -0.148438 1.867188 -0.265625 C 1.976562 -0.382812 2.027344 -0.527344 2.027344 -0.699219 C 2.027344 -0.898438 1.972656 -1.054688 1.859375 -1.179688 C 1.746094 -1.300781 1.515625 -1.484375 1.164062 -1.734375 C 1.007812 -1.636719 0.894531 -1.507812 0.824219 -1.355469 C 0.753906 -1.199219 0.71875 -1.046875 0.71875 -0.902344 C 0.71875 -0.65625 0.78125 -0.457031 0.910156 -0.3125 C 1.039062 -0.164062 1.199219 -0.09375 1.398438 -0.09375 Z M 1.433594 -2.164062 C 1.601562 -2.285156 1.71875 -2.382812 1.785156 -2.464844 C 1.898438 -2.605469 1.953125 -2.773438 1.953125 -2.96875 C 1.953125 -3.140625 1.898438 -3.289062 1.792969 -3.410156 C 1.6875 -3.53125 1.527344 -3.589844 1.3125 -3.589844 C 1.144531 -3.589844 1.007812 -3.535156 0.902344 -3.429688 C 0.792969 -3.324219 0.738281 -3.199219 0.738281 -3.050781 C 0.738281 -2.878906 0.800781 -2.722656 0.929688 -2.574219 C 1.058594 -2.429688 1.222656 -2.292969 1.433594 -2.164062 Z M 1.015625 -1.851562 C 0.777344 -2.042969 0.613281 -2.195312 0.527344 -2.308594 C 0.394531 -2.480469 0.324219 -2.675781 0.324219 -2.882812 C 0.324219 -3.121094 0.425781 -3.324219 0.621094 -3.492188 C 0.820312 -3.65625 1.078125 -3.742188 1.394531 -3.742188 C 1.6875 -3.742188 1.917969 -3.664062 2.089844 -3.503906 C 2.261719 -3.347656 2.347656 -3.164062 2.347656 -2.957031 C 2.347656 -2.746094 2.257812 -2.554688 2.082031 -2.386719 C 1.980469 -2.292969 1.820312 -2.179688 1.59375 -2.054688 C 1.898438 -1.828125 2.121094 -1.628906 2.253906 -1.460938 C 2.386719 -1.292969 2.453125 -1.09375 2.453125 -0.863281 C 2.453125 -0.601562 2.355469 -0.382812 2.15625 -0.207031 C 1.960938 -0.0273438 1.699219 0.0585938 1.371094 0.0585938 C 1.074219 0.0585938 0.824219 -0.0234375 0.613281 -0.1875 C 0.402344 -0.351562 0.296875 -0.566406 0.296875 -0.832031 C 0.296875 -1.0625 0.367188 -1.265625 0.515625 -1.441406 C 0.613281 -1.554688 0.777344 -1.691406 1.015625 -1.851562 Z "/>
</g>
<g id="glyph-0-4">
<path d="M 0.164062 -0.0625 C 0.828125 -0.75 1.277344 -1.253906 1.515625 -1.574219 C 1.75 -1.898438 1.867188 -2.210938 1.867188 -2.515625 C 1.867188 -2.785156 1.796875 -2.988281 1.652344 -3.128906 C 1.507812 -3.269531 1.335938 -3.339844 1.132812 -3.339844 C 0.886719 -3.339844 0.683594 -3.25 0.53125 -3.066406 C 0.445312 -2.96875 0.367188 -2.816406 0.289062 -2.609375 L 0.171875 -2.632812 C 0.261719 -3.050781 0.414062 -3.339844 0.628906 -3.5 C 0.847656 -3.664062 1.078125 -3.742188 1.328125 -3.742188 C 1.632812 -3.742188 1.878906 -3.648438 2.070312 -3.453125 C 2.257812 -3.261719 2.351562 -3.027344 2.351562 -2.746094 C 2.351562 -2.449219 2.25 -2.164062 2.046875 -1.890625 C 1.839844 -1.617188 1.398438 -1.125 0.714844 -0.421875 L 1.957031 -0.421875 C 2.132812 -0.421875 2.253906 -0.445312 2.324219 -0.484375 C 2.394531 -0.527344 2.476562 -0.628906 2.5625 -0.789062 L 2.632812 -0.757812 L 2.332031 0 L 0.164062 0 Z "/>
</g>
</g>
</defs>
<g fill="rgb(100%, 100%, 100%)" fill-opacity="1">
<use xlink:href="#glyph-0-0" x="30" y="24.166992"/>
<use xlink:href="#glyph-0-1" x="33" y="24.166992"/>
<use xlink:href="#glyph-0-2" x="36" y="24.166992"/>
<use xlink:href="#glyph-0-0" x="37" y="24.166992"/>
<use xlink:href="#glyph-0-3" x="40" y="24.166992"/>
<use xlink:href="#glyph-0-2" x="43" y="24.166992"/>
<use xlink:href="#glyph-0-4" x="44" y="24.166992"/>
<use xlink:href="#glyph-0-0" x="47" y="24.166992"/>
</g>
</svg>
